<?xml version="1.0" encoding="utf-8"?>
<!-- Generator: Adobe Illustrator 23.1.0, SVG Export Plug-In . SVG Version: 6.00 Build 0)  -->
<svg version="1.1" id="Layer_1" xmlns="http://www.w3.org/2000/svg" xmlns:xlink="http://www.w3.org/1999/xlink" x="0px" y="0px"
	 viewBox="0 0 463 463" style="enable-background:new 0 0 463 463;" xml:space="preserve">
<style type="text/css">
	.st0{fill:#2A8DC7;}
</style>
<path class="st0" d="M383.2,56.9c0-13.2-10.7-23.9-23.9-23.9h-23.9c0-13.2-10.7-23.9-23.9-23.9c-13.2,0-23.9,10.7-23.9,23.9h-31.9
	c0-13.2-10.7-23.9-23.9-23.9c-13.2,0-23.9,10.7-23.9,23.9h-31.9c0-13.2-10.7-23.9-23.9-23.9s-23.9,10.7-23.9,23.9H95.8
	C95.8,19.7,85.1,9,71.8,9S47.9,19.7,47.9,32.9H23.9C10.7,32.9,0,43.6,0,56.9v335.3c0,4.4,3.6,8,8,8h23.9v23.9c0,4.4,3.6,8,8,8h210.2
	c0.1,0,0.2-0.1,0.3-0.1c42.3,29.2,97.4,31.9,142.4,7.2c45-24.8,72.1-72.8,70.1-124.2c-2-51.3-32.9-97.1-79.7-118.2V56.9z
	 M303.3,32.9c0-4.4,3.6-8,8-8c4.4,0,8,3.6,8,8v23.9h-16V32.9z M223.5,32.9c0-4.4,3.6-8,8-8c4.4,0,8,3.6,8,8v23.9h-16V32.9z
	 M143.7,32.9c0-4.4,3.6-8,8-8s8,3.6,8,8v23.9h-16V32.9z M63.9,32.9c0-4.4,3.6-8,8-8c4.4,0,8,3.6,8,8v23.9h-16V32.9z M16,56.9
	c0-4.4,3.6-8,8-8h23.9v16c0,4.4,3.6,8,8,8h31.9c4.4,0,8-3.6,8-8v-16h31.9v16c0,4.4,3.6,8,8,8h31.9c4.4,0,8-3.6,8-8v-16h31.9v16
	c0,4.4,3.6,8,8,8h31.9c4.4,0,8-3.6,8-8v-16h31.9v16c0,4.4,3.6,8,8,8h31.9c4.4,0,8-3.6,8-8v-16h23.9c4.4,0,8,3.6,8,8v39.9H16V56.9z
	 M47.9,400.1h169.9c4.1,5.7,8.6,11,13.5,16H47.9V400.1z M447,320.3c0,66.1-53.6,119.7-119.7,119.7s-119.7-53.6-119.7-119.7
	s53.6-119.7,119.7-119.7C393.4,200.6,447,254.2,447,320.3z M327.3,184.6c-47.7,0-91.9,25-116.4,65.9c-24.5,40.9-25.8,91.7-3.3,133.7
	H16V112.8h351.2v77.9C354.3,186.6,340.8,184.6,327.3,184.6z"/>
<path class="st0" d="M71.8,144.7c-13.2,0-23.9,10.7-23.9,23.9s10.7,23.9,23.9,23.9s23.9-10.7,23.9-23.9S85.1,144.7,71.8,144.7z
	 M71.8,176.6c-4.4,0-8-3.6-8-8s3.6-8,8-8c4.4,0,8,3.6,8,8S76.3,176.6,71.8,176.6z"/>
<path class="st0" d="M151.7,144.7c-13.2,0-23.9,10.7-23.9,23.9s10.7,23.9,23.9,23.9s23.9-10.7,23.9-23.9S164.9,144.7,151.7,144.7z
	 M151.7,176.6c-4.4,0-8-3.6-8-8s3.6-8,8-8s8,3.6,8,8S156.1,176.6,151.7,176.6z"/>
<path class="st0" d="M231.5,144.7c-13.2,0-23.9,10.7-23.9,23.9s10.7,23.9,23.9,23.9c13.2,0,23.9-10.7,23.9-23.9
	S244.7,144.7,231.5,144.7z M231.5,176.6c-4.4,0-8-3.6-8-8s3.6-8,8-8c4.4,0,8,3.6,8,8S235.9,176.6,231.5,176.6z"/>
<path class="st0" d="M71.8,208.5c-13.2,0-23.9,10.7-23.9,23.9s10.7,23.9,23.9,23.9s23.9-10.7,23.9-23.9S85.1,208.5,71.8,208.5z
	 M71.8,240.5c-4.4,0-8-3.6-8-8s3.6-8,8-8c4.4,0,8,3.6,8,8S76.3,240.5,71.8,240.5z"/>
<path class="st0" d="M151.7,208.5c-13.2,0-23.9,10.7-23.9,23.9s10.7,23.9,23.9,23.9s23.9-10.7,23.9-23.9S164.9,208.5,151.7,208.5z
	 M151.7,240.5c-4.4,0-8-3.6-8-8s3.6-8,8-8s8,3.6,8,8S156.1,240.5,151.7,240.5z"/>
<path class="st0" d="M71.8,272.4c-13.2,0-23.9,10.7-23.9,23.9c0,13.2,10.7,23.9,23.9,23.9s23.9-10.7,23.9-23.9
	C95.8,283.1,85.1,272.4,71.8,272.4z M71.8,304.3c-4.4,0-8-3.6-8-8s3.6-8,8-8c4.4,0,8,3.6,8,8S76.3,304.3,71.8,304.3z"/>
<path class="st0" d="M151.7,272.4c-13.2,0-23.9,10.7-23.9,23.9c0,13.2,10.7,23.9,23.9,23.9s23.9-10.7,23.9-23.9
	C175.6,283.1,164.9,272.4,151.7,272.4z M151.7,304.3c-4.4,0-8-3.6-8-8s3.6-8,8-8s8,3.6,8,8S156.1,304.3,151.7,304.3z"/>
<path class="st0" d="M223.5,320.3c0,57.3,46.5,103.8,103.8,103.8s103.8-46.5,103.8-103.8s-46.5-103.8-103.8-103.8
	C270,216.6,223.6,263,223.5,320.3z M415.1,320.3h-16c-4.4,0-8,3.6-8,8s3.6,8,8,8h14.4c-7.2,38.6-39.2,67.8-78.3,71.4v-15.6
	c0-4.4-3.6-8-8-8s-8,3.6-8,8v15.6c-39.1-3.6-71.1-32.8-78.3-71.4h14.4c4.4,0,8-3.6,8-8s-3.6-8-8-8h-16c0.1-45.4,34.6-83.2,79.8-87.4
	v15.6c0,4.4,3.6,8,8,8s8-3.6,8-8v-15.6C380.5,237.1,415.1,274.9,415.1,320.3z"/>
<path class="st0" d="M329,316.5l-11-16.6c-2.4-3.7-7.4-4.7-11.1-2.2c-3.7,2.4-4.7,7.4-2.2,11.1l16,23.9c1.3,1.9,3.3,3.1,5.5,3.5
	c0.4,0.1,0.8,0.1,1.1,0.1c1.9,0,3.7-0.7,5.1-1.8l47.9-39.9c3.4-2.8,3.9-7.9,1-11.2c-2.8-3.4-7.9-3.9-11.2-1L329,316.5z"/>
</svg>
