<?xml version="1.0" encoding="utf-8"?>
<!-- Generator: Adobe Illustrator 23.1.0, SVG Export Plug-In . SVG Version: 6.00 Build 0)  -->
<svg version="1.1" id="Capa_1" xmlns="http://www.w3.org/2000/svg" xmlns:xlink="http://www.w3.org/1999/xlink" x="0px" y="0px"
	 viewBox="0 0 512 512" style="enable-background:new 0 0 512 512;" xml:space="preserve">
<style type="text/css">
	.st0{fill:#2A8DC7;}
</style>
<g>
	<path class="st0" d="M511.8,234.7c-1.1-13.9-7.3-26.3-17.7-34.9c-9.7-8.1-21.8-11.9-34.2-10.6c-16.9,1.7-31.8,12.7-39.1,28.7
		l-15.4,1.4l-15.2-4.2c-1.2-0.3-2.1-1.3-2.5-2.5c-4.4-13.1-10.7-25.5-18.7-36.8l5.4-14.4l16.9-18.3c9.6-0.3,18.6-4.6,25-12
		c11.6-13.4,11.1-33.9-1.1-46.7c-6.7-7-15.8-10.9-25.4-10.8c-9.6,0.1-18.7,4.1-25.2,11.2c-6.3,6.9-9.6,15.8-9.2,25l-16.9,18.3
		l-14.2,6.6c-21.2-12.4-45.2-19.1-69.7-19.4l-9.3-14.8l-3.3-16.3c13-10.7,19.1-27.2,15.6-43.5C252.5,16.1,227.3,0.2,201.6,5
		c-13,2.5-24,9.7-31,20.3c-6.6,10-8.9,21.8-6.4,33.3c3.3,15.4,14.4,27.8,29.6,33.4l3.6,18l-2.9,17.5c-13.1,5.9-25.2,13.6-36,23.1
		l-10.6-1.9l-12-9.1c-1.7-9.1-7-17.2-14.8-22.4c-14.6-9.8-34.2-7.1-45.7,6.2c-6.3,7.4-9.2,16.7-8.2,26.4c1,9.5,6,18.2,13.6,24
		c7.9,5.9,17.9,8.2,27.5,6.4l10.1,7.6l4.5,9.2c0.2,0.4,0.2,0.9,0,1.3c-8.6,18.7-13,38.7-13,59.4c0,3.8,0.2,7.7,0.5,11.6
		c0,0.6-0.2,1.1-0.6,1.5l-17,12.1L73.4,289c-11.9-9.2-27.7-12-42.2-7.2c-0.3,0.1-0.6,0.2-0.9,0.3l-0.2,0.1c-4,1.4-6.1,5.8-4.6,9.8
		c1.4,4,5.8,6.1,9.8,4.6l0.4-0.1c0.1,0,0.2-0.1,0.4-0.1c10.6-3.5,22.2-0.9,30.3,6.8c1.5,1.4,3.4,2.1,5.3,2.1c0.8,0,1.5-0.1,2.3-0.4
		l24.6-7.7c0.8-0.2,1.5-0.6,2.2-1.1l18-12.8c4.8-3.4,7.5-9.3,7-15.2c-0.3-3.4-0.4-6.9-0.4-10.3c0-18.5,3.9-36.3,11.6-53
		c2.1-4.6,2.1-9.9-0.2-14.5l-5.3-10.9c-0.5-1.1-1.3-2-2.3-2.8l-14.5-10.9c-2-1.5-4.6-1.9-7-1.2c-6,1.9-12.6,0.8-17.6-3
		c-4.3-3.3-7-8-7.6-13.4c-0.6-5.4,1-10.6,4.6-14.7c6.3-7.3,17.4-8.8,25.4-3.5c4.9,3.3,8,8.6,8.5,14.5c0.2,2.2,1.3,4.2,3,5.5l16,12.1
		c1,0.7,2.1,1.2,3.3,1.4l16.1,2.9c2.4,0.4,4.8-0.3,6.6-1.9c11.3-10.4,24.1-18.7,38.2-24.5c2.5-1,4.2-3.2,4.7-5.9l3.8-23
		c0.2-0.9,0.1-1.9,0-2.8l-4.8-23.8c-0.6-2.9-2.8-5.2-5.6-5.9c-11.9-3.1-20.8-11.9-23.2-23.1c-1.6-7.5-0.1-15.1,4.2-21.6
		c4.8-7.1,12.2-12,21.1-13.7c17.6-3.3,34.8,7.3,38.3,23.6c2.5,11.7-2.7,23.7-13.3,30.5c-2.7,1.7-4,4.9-3.4,8l4.5,22.4
		c0.2,0.9,0.5,1.8,1,2.6l11.1,17.7c2.1,3.4,5.8,5.5,9.9,5.5h0c23.1,0,45.8,6.3,65.6,18.2c3.3,2,7.4,2.2,10.9,0.6l17.4-8.1
		c0.9-0.4,1.7-1,2.4-1.8l20.3-21.9c1.6-1.7,2.3-4.1,2-6.4c-0.9-5.9,0.9-11.8,4.9-16.1c3.7-4,8.7-6.2,14.1-6.2c5.4,0,10.4,2.1,14.2,6
		c6.8,7.1,7.1,18.6,0.6,26c-4.1,4.7-9.9,7.1-16.1,6.6c-2.3-0.2-4.6,0.7-6.2,2.4l-20.3,21.9c-0.7,0.7-1.2,1.6-1.6,2.5l-6.6,17.7
		c-1.4,3.6-0.8,7.7,1.5,10.9c7.6,10.5,13.6,22,17.7,34.3c2,6.1,6.9,10.7,13,12.4l16.5,4.6c0.9,0.3,1.8,0.3,2.8,0.3l21.4-1.9
		c3-0.3,5.6-2.3,6.6-5.1c4.4-12.8,15.4-21.9,28-23.1c8.2-0.8,16.3,1.7,22.8,7.1c7.1,6,11.5,14.6,12.2,24.3
		c0.5,6.4-0.7,12.9-3.4,18.6c-1.8,3.8-0.1,8.4,3.7,10.2c3.9,1.8,8.4,0.1,10.2-3.7C510.9,252.8,512.5,243.7,511.8,234.7L511.8,234.7z
		"/>
	<path class="st0" d="M473.2,272.7c-2.2,0.7-4.4,1.2-6.6,1.4c-13.3,1.3-25.7-6-31.7-18.8c-1.4-2.9-4.4-4.7-7.6-4.4l-20.1,1.8
		c-0.9,0.1-1.8,0.3-2.7,0.7l-15.2,7.3c-5.8,2.8-9.7,8.3-10.6,14.7c-1.3,9.5-3.8,18.9-7.2,27.9c-2.1,5.4-1.7,11.3,1.1,16.2l5.4,9.7
		c0.6,1.1,1.4,2,2.4,2.6l15.1,10.1c2.1,1.4,4.7,1.7,7,0.8c5.9-2.3,12.5-1.5,17.7,2c4.5,3,7.4,7.6,8.3,12.9
		c0.9,5.3-0.5,10.6-3.8,14.9c-5.8,7.6-16.9,9.8-25.2,4.9c-5.1-3-8.5-8.1-9.3-14c-0.3-2.2-1.5-4.1-3.3-5.3L370.2,347
		c-1-0.7-2.2-1.1-3.4-1.2l-10.5-1.3c-5.9-0.7-11.7,1.2-16.1,5.4c-8.4,8-17.8,14.8-28,20.3c-5.9,3.2-9.9,9.3-10.3,16.1l-1.3,21.3
		c0,0.8,0,1.6,0.2,2.4l6.6,26.2c0.7,2.7,2.7,4.8,5.4,5.5c9,2.5,15.9,9.6,18.2,18.6c1.7,6.8,0.6,13.9-3.1,19.9
		c-3.7,6-9.5,10.2-16.5,11.7c-12.9,2.9-26.2-4.7-30.2-17.2c-3.1-9.5-0.6-19.7,6.5-26.6c1.9-1.9,2.7-4.7,2.1-7.4l-6.6-26.3
		c-0.2-0.8-0.5-1.5-0.9-2.2L272,395.7c-4.1-6.7-11.4-10.7-19.4-10.7c0,0,0,0,0,0c-8.3,0-16.6-0.8-24.7-2.4
		c-7.7-1.5-15.5,0.9-20.9,6.6l-13.5,14.3c-0.5,0.6-1,1.2-1.3,1.9l-15.1,31.4c-1,2.1-1,4.6,0,6.7c2.7,5.4,2.7,11.6,0.1,17
		c-2.3,4.9-6.5,8.4-11.6,10.1c-5.2,1.6-10.6,1-15.3-1.6c-8.3-4.7-12-15.3-8.4-24.2c2.4-5.9,7.4-10.1,13.6-11.6
		c2.3-0.5,4.2-2.1,5.2-4.1l15.2-31.6c0.3-0.7,0.6-1.5,0.7-2.3l3-21.2c0.9-6.6-1.7-13.2-6.8-17.4c-11.5-9.3-21.2-20.5-28.9-33.1
		c-3.4-5.5-9.5-9-16-9.1l-21.2-0.2c-0.8,0-1.6,0.1-2.4,0.4l-23.2,7.3c-2.9,0.9-5,3.5-5.3,6.5c-1.3,11.9-9.5,21.8-20.9,25.4
		c-15.7,4.9-32.6-3.8-37.7-19.4c-2-6.2-2-12.8,0.2-19.1c1.4-4-0.8-8.4-4.8-9.8c-4-1.4-8.4,0.8-9.8,4.8c-3.3,9.4-3.3,19.4-0.3,28.8
		c6.2,19.1,24.2,31.4,43.4,31.4c4.5,0,9.1-0.7,13.6-2.1c15.5-4.9,27.1-17.7,30.7-33.3l17.6-5.5l20,0.2c1.3,0,2.4,0.7,3,1.7
		c8.6,14.2,19.5,26.6,32.4,37.1c1,0.8,1.4,2,1.3,3.3l-2.8,20L148,419.4c-9.3,3.3-16.8,10.4-20.6,19.6c-6.6,16.2-0.1,34.8,15.1,43.4
		c8.5,4.8,18.2,5.8,27.5,2.9c9.1-2.9,16.7-9.4,20.9-18.1c4.1-8.5,4.6-18.1,1.4-26.8l13.1-27.2l12.7-13.4c1.7-1.8,4.2-2.6,6.7-2.1
		c9.1,1.8,18.4,2.7,27.8,2.7h0c2.6,0,5,1.3,6.3,3.4l9.6,15.4l5.3,21.2c-8.9,10.8-11.7,25.4-7.3,39c5.6,17.1,21.9,28.4,39.4,28.4
		c2.9,0,5.9-0.3,8.8-1c11-2.4,20.3-9.1,26.2-18.6c5.9-9.6,7.6-20.9,4.9-31.8c-3.2-12.8-12.5-23.3-24.6-28.2l-5.3-21l1.3-20.1
		c0.1-1.5,0.9-2.8,2.2-3.5c11.4-6.1,22-13.7,31.4-22.7c1-0.9,2.3-1.4,3.6-1.2l8.7,1.1l12.5,8.4c2.2,9,7.9,16.7,16,21.5
		c15.1,9,34.6,5.2,45.3-8.8c5.9-7.7,8.3-17.2,6.7-26.8c-1.6-9.4-7-17.9-14.9-23.2c-8.2-5.5-18.3-7.2-27.8-4.8l-10.5-7l-4.5-8.1
		c-0.5-1-0.6-2.1-0.2-3.2c3.9-10.1,6.6-20.6,8.1-31.3c0.2-1.3,1-2.4,2.1-2.9l13.9-6.7l13.7-1.2c9.5,15.7,26.5,24.5,44.6,22.7
		c3.3-0.3,6.7-1,9.9-2.1c4-1.3,6.2-5.7,4.9-9.7C481.5,273.6,477.2,271.4,473.2,272.7L473.2,272.7z"/>
	<path class="st0" d="M277.3,153c-8.1-1.9-16.4-2.9-24.7-2.9c-59.3,0-107.6,48.3-107.6,107.6s48.3,107.6,107.6,107.6
		s107.6-48.3,107.6-107.6c0-37.1-18.7-71.1-50.1-91c-3.6-2.3-8.3-1.2-10.6,2.4c-2.3,3.6-1.2,8.3,2.4,10.6c26.9,17,43,46.2,43,78
		c0,50.9-41.4,92.3-92.3,92.3s-92.3-41.4-92.3-92.3s41.4-92.3,92.3-92.3c7.1,0,14.3,0.8,21.2,2.4c4.1,1,8.3-1.6,9.2-5.7
		C284,158.1,281.4,153.9,277.3,153L277.3,153z"/>
	<path class="st0" d="M84.4,83.7c19.9,0,36.1-16.2,36.1-36.1s-16.2-36.1-36.1-36.1S48.3,27.7,48.3,47.6
		C48.3,67.5,64.5,83.7,84.4,83.7z M84.4,26.8c11.5,0,20.8,9.3,20.8,20.8s-9.3,20.8-20.8,20.8S63.6,59,63.6,47.6S73,26.8,84.4,26.8z"
		/>
	<path class="st0" d="M76.6,396.3c-14.6,0-26.5,11.9-26.5,26.5s11.9,26.5,26.5,26.5c14.6,0,26.5-11.9,26.5-26.5
		C103.1,408.2,91.2,396.3,76.6,396.3z M76.6,433.9c-6.1,0-11.1-5-11.1-11.1c0-6.1,5-11.1,11.1-11.1c6.1,0,11.1,5,11.1,11.1
		C87.7,428.9,82.8,433.9,76.6,433.9z"/>
	<path class="st0" d="M421.8,418.3c-19.5,0-35.4,15.9-35.4,35.4s15.9,35.4,35.4,35.4c19.5,0,35.4-15.9,35.4-35.4
		S441.3,418.3,421.8,418.3z M421.8,473.6c-11,0-20-9-20-20s9-20,20-20c11,0,20,9,20,20S432.8,473.6,421.8,473.6z"/>
	<path class="st0" d="M255.4,230.2c0-18.5-15-33.5-33.5-33.5s-33.5,15-33.5,33.5s15,33.5,33.5,33.5S255.4,248.7,255.4,230.2
		L255.4,230.2z M221.9,248.3c-10,0-18.1-8.1-18.1-18.1c0-10,8.1-18.1,18.1-18.1s18.1,8.1,18.1,18.1
		C240,240.2,231.9,248.3,221.9,248.3z"/>
	<path class="st0" d="M242.6,335.6c13.9,0,25.3-11.3,25.3-25.3c0-13.9-11.3-25.3-25.3-25.3c-13.9,0-25.3,11.3-25.3,25.3
		C217.4,324.3,228.7,335.6,242.6,335.6z M242.6,300.5c5.5,0,9.9,4.4,9.9,9.9s-4.4,9.9-9.9,9.9c-5.5,0-9.9-4.4-9.9-9.9
		S237.2,300.5,242.6,300.5z"/>
	<path class="st0" d="M275.4,257.8c0,12.4,10.1,22.4,22.4,22.4c12.4,0,22.4-10.1,22.4-22.4c0-12.4-10.1-22.4-22.4-22.4
		C285.4,235.3,275.4,245.4,275.4,257.8L275.4,257.8z M297.8,250.7c3.9,0,7.1,3.2,7.1,7.1c0,3.9-3.2,7.1-7.1,7.1
		c-3.9,0-7.1-3.2-7.1-7.1C290.7,253.9,293.9,250.7,297.8,250.7z"/>
</g>
</svg>
