<svg id="Lager_1" data-name="Lager 1" xmlns="http://www.w3.org/2000/svg" viewBox="0 0 226 34.99"><defs><style>.cls-1{fill:#FFFFFF;}</style></defs><title>CO_SL_RGB</title><path class="cls-1" d="M0,22c0-7.17,4.93-13,12.44-13,4,0,7,1.54,8.7,3.52a11.2,11.2,0,0,1,2.44,5.47l-6,.19a4.94,4.94,0,0,0-1.35-2.8A5.68,5.68,0,0,0,12.4,14c-3.53,0-6.15,2.94-6.15,8s2.74,7.9,6.27,7.9a5.9,5.9,0,0,0,3.84-1.3,4.88,4.88,0,0,0,1.48-3.16l6,.23A9.46,9.46,0,0,1,22.85,29c-1.46,3.09-5,6-10.41,6C4.89,35,0,29.12,0,22Z"/><rect class="cls-1" x="26.5" y="0.01" width="6.32" height="34.27"/><path class="cls-1" d="M44.57,23.92c-1.09.39-2.74.8-2.74,3.14,0,2.12,1.87,3.17,4.29,3.17,4.1,0,6-2.44,6-4.88V22a9.31,9.31,0,0,1-2.49.84c-.9.19-4,.72-5.09,1.11m7.55,7.69h-.19C51.45,33.21,48.4,35,44.3,35s-8.61-2.21-8.61-7.49c0-5.65,4.84-7.32,8.71-7.94,2.15-.35,4.8-.57,5.67-.73s1.46-.48,1.71-1.13a2.26,2.26,0,0,0,.12-.75c0-2-1.22-3.38-4.38-3.38-2.53,0-4.9,1.2-4.9,3.83l-5.49-.28c.53-5.6,5-8.18,10.67-8.18,6,0,10.72,2.69,10.72,8.13V34.28h-6.4V31.61"/><path class="cls-1" d="M62.32,30.7a8.22,8.22,0,0,1-1.14-4.54h5.5a6,6,0,0,0,.6,2.08c.76,1.44,2.3,2.22,5,2.22,2.16,0,4.54-1,4.54-3.15s-3.17-2.62-6.47-3.22c-4.91-.89-8.64-2.41-8.64-7.43,0-4.42,3.81-7.73,9.81-7.73,4.93,0,8,2.3,9.18,4.26a8.49,8.49,0,0,1,1.08,3.9H76.27a4.71,4.71,0,0,0-.37-1.8c-.72-1.47-2.57-2-4.41-2-2.25,0-4.16.92-4.16,2.72a2,2,0,0,0,1.35,2.06,21.61,21.61,0,0,0,5.13,1.11c4.37.64,8.83,2.33,8.83,7.41S78.79,35,72,35c-4.61,0-8-1.64-9.68-4.29"/><path class="cls-1" d="M105.27,13.8c-3.59,0-5.75,2.5-5.75,8.15s2.26,8.11,5.75,8.11S111,27.68,111,22,108.85,13.8,105.27,13.8ZM93.35,22c0-8.39,5.43-13,11.92-13s11.86,4.65,11.86,13-5.3,13-11.86,13S93.35,30.35,93.35,22Z"/><path class="cls-1" d="M134.88,34.28V19.18c0-2.4-.83-4.73-3.95-4.73a4.25,4.25,0,0,0-3.8,2.16,9.72,9.72,0,0,0-1,4.33V34.28h-6.32V0h6.32V12.54h.09A7.56,7.56,0,0,1,133,8.93,7.76,7.76,0,0,1,138.74,11c1.78,1.66,2.47,4.09,2.47,7.62V34.28Z"/><rect class="cls-1" x="145.39" width="6.32" height="34.28"/><path class="cls-1" d="M155.79,30.59a8.2,8.2,0,0,1-1.09-4.43h5.49a6.28,6.28,0,0,0,.58,2c.77,1.46,2.3,2.26,5,2.26,2.17,0,4.55-1,4.55-3.15s-3.17-2.62-6.47-3.22c-4.91-.89-8.64-2.42-8.64-7.43,0-4.43,3.8-7.73,9.8-7.73,5,0,8,2.32,9.2,4.29a8.39,8.39,0,0,1,1.07,3.86h-5.53a4.49,4.49,0,0,0-.29-1.67c-.68-1.56-2.58-2.12-4.49-2.12-2.25,0-4.15.91-4.15,2.72a2.05,2.05,0,0,0,1.45,2.11,22.65,22.65,0,0,0,5,1.06c4.36.63,8.83,2.33,8.83,7.41S172.31,35,165.52,35c-4.67,0-8-1.7-9.73-4.4"/><path class="cls-1" d="M219.68,34.28V19.18c0-2.4-.83-4.73-4-4.73a4.26,4.26,0,0,0-3.8,2.16,9.72,9.72,0,0,0-1,4.33V34.28h-6.32V9.73h6.08v2.81h.09c1.14-2.1,3.9-3.61,7-3.61A7.76,7.76,0,0,1,223.53,11c1.78,1.66,2.47,4.09,2.47,7.62V34.28Z"/><path class="cls-1" d="M189.89,13.8c-3.59,0-5.78,2.5-5.78,8.15s2.3,8.11,5.78,8.11,5.73-2.38,5.73-8.11S193.47,13.8,189.89,13.8ZM177.94,22c0-8.39,5.47-13,11.95-13s11.9,4.65,11.9,13-5.34,13-11.9,13S177.94,30.35,177.94,22Z"/></svg>